<svg xmlns="http://www.w3.org/2000/svg" xmlns:xlink="http://www.w3.org/1999/xlink" width="158" height="120" viewBox="0 0 158 120">
  <defs>
    <path id="bot-3-a" d="M2,29 L14,29 C15.1045695,29 16,29.8954305 16,31 L16,49 C16,50.1045695 15.1045695,51 14,51 L2,51 C0.8954305,51 1.3527075e-16,50.1045695 0,49 L0,31 C-1.3527075e-16,29.8954305 0.8954305,29 2,29 Z M117,36 L136,36 C137.104569,36 138,36.8954305 138,38 L138,56 C138,57.1045695 137.104569,58 136,58 L117,58 C115.895431,58 115,57.1045695 115,56 L115,38 C115,36.8954305 115.895431,36 117,36 Z M117,0 L136,0 C137.104569,-2.02906125e-16 138,0.8954305 138,2 L138,16 C138,17.1045695 137.104569,18 136,18 L117,18 C115.895431,18 115,17.1045695 115,16 L115,2 C115,0.8954305 115.895431,2.02906125e-16 117,0 Z"/>
    <path id="bot-3-c" d="M0,89 C0,88.9795073 0.0141049326,89.1836401 0,90 C0.183374957,90.4764708 0.402008635,91.4971444 1,93 C1.82671155,96.0560243 3.7804036,99.5565275 7,103 C16.6943975,113.399831 35.1723647,120 65,120 C94.8276353,120 113.305603,113.399637 123,103 C126.219596,99.5565275 128.173198,96.0560243 129,93 C129.597973,91.4971251 129.816625,90.4764321 130,90 C129.985895,89.1836498 130,88.9795151 130,89 L130,50 C130,50.1036464 129.971788,49.4988099 130,49 C129.739042,46.8828777 129.471022,44.9851234 129,43 C127.813584,37.0088305 125.606104,31.0889814 122,26 C112.282973,9.66267383 94.2553094,0 65,0 C35.7447556,0 17.7163695,9.66228674 8,26 C4.39414151,31.089175 2.18649928,37.0088305 1,43 C0.529043306,44.9851234 0.26102792,46.8828583 0,49 C0.0282766705,49.4534424 6.49996895e-05,50.3228972 0,50 L0,89 Z"/>
  </defs>
  <g fill="none" fill-rule="evenodd" transform="translate(-11 -44)">
    <g transform="translate(0 66)">
      <path stroke="#2A3544" stroke-width="6" d="M25,1 C22.0459826,12.6966281 5.09589655,7.66625764 1.63133076,19.0090388 C-1.83323502,30.35182 9.65649568,39 19.1552405,39" opacity=".9" transform="translate(13 11)"/>
      <path stroke="#2A3544" stroke-width="4" d="M0,36 C8.39445109,39.4863785 20.1016531,28.4063428 16,19.5 C11.8983469,10.5936572 0,12.8056069 0,0.195051106" opacity=".9" transform="translate(150 19)"/>
      <g transform="translate(21 6)">
        <mask id="bot-3-b" fill="#fff">
          <use xlink:href="#bot-3-a"/>
        </mask>
        <use fill="#273951" xlink:href="#bot-3-a"/>
        <g fill="#CE93D8" mask="url(#bot-3-b)">
          <rect width="180" height="76" transform="translate(-21 -6)"/>
        </g>
      </g>
    </g>
    <g transform="translate(25 44)">
      <mask id="bot-3-d" fill="#fff">
        <use xlink:href="#bot-3-c"/>
      </mask>
      <use fill="#E1E6E8" transform="matrix(1 0 0 -1 0 120)" xlink:href="#bot-3-c"/>
      <g fill="#880E4F" mask="url(#bot-3-d)">
        <rect width="138" height="124" transform="translate(-4 -2)"/>
      </g>
      <g mask="url(#bot-3-d)">
        <g transform="translate(-1 -1)">
          <path fill="#000" fill-opacity=".1" d="M72.4160437,34 L23,34 L19,34 L19,0 L23,0 L23,30 L72.4160437,30 C73.1876003,28.2340952 74.949681,27 77,27 C79.7614237,27 82,29.2385763 82,32 C82,34.7614237 79.7614237,37 77,37 C74.949681,37 73.1876003,35.7659048 72.4160437,34 Z M11,0 L15,0 L15,18 L11,18 L11,0 Z"/>
          <path fill="#FFF" fill-opacity=".2" d="M122,34.5839563 L122,60 L141,60 L141,64 L122,64 L118,64 L118,34.5839563 C116.234095,33.8123997 115,32.050319 115,30 C115,27.2385763 117.238576,25 120,25 C122.761424,25 125,27.2385763 125,30 C125,32.050319 123.765905,33.8123997 122,34.5839563 Z"/>
          <path fill="#000" fill-opacity=".2" d="M114,68 L141,68 L141,72 L114,72 L110,72 L110,46 L114,46 L114,68 Z"/>
          <path fill="#000" fill-opacity=".2" d="M15,103.583956 L15,129 L34,129 L34,133 L15,133 L11,133 L11,103.583956 C9.23409522,102.8124 8,101.050319 8,99 C8,96.2385763 10.2385763,94 13,94 C15.7614237,94 18,96.2385763 18,99 C18,101.050319 16.7659048,102.8124 15,103.583956 Z" transform="matrix(-1 0 0 1 42 0)"/>
        </g>
      </g>
    </g>
    <g transform="translate(52 124)">
      <rect width="68" height="22" x="4" y="5" fill="#000" fill-opacity=".2" rx="5"/>
      <rect width="60" height="14" x="8" y="9" fill="#FFF" rx="2"/>
      <rect width="4" height="14" x="18" y="9" fill="#000" fill-opacity=".1"/>
      <rect width="4" height="14" x="42" y="9" fill="#000" fill-opacity=".1"/>
      <rect width="4" height="14" x="30" y="9" fill="#000" fill-opacity=".1"/>
      <rect width="4" height="14" x="54" y="9" fill="#000" fill-opacity=".1"/>
    </g>
    <g fill="#FFF" transform="translate(38 76)">
      <circle cx="21" cy="30" r="15" fill-opacity=".1"/>
      <circle cx="83" cy="30" r="15" fill-opacity=".1"/>
      <circle cx="21" cy="30" r="12" fill-opacity=".1"/>
      <circle cx="83" cy="30" r="12" fill-opacity=".1"/>
      <circle cx="21" cy="30" r="6" fill-opacity=".8"/>
      <circle cx="83" cy="30" r="6" fill-opacity=".8"/>
      <circle cx="21" cy="30" r="3" fill-opacity=".8"/>
      <circle cx="83" cy="30" r="3" fill-opacity=".8"/>
    </g>
  </g>
</svg>
