<svg xmlns="http://www.w3.org/2000/svg" xmlns:xlink="http://www.w3.org/1999/xlink" width="130" height="156" viewBox="0 0 130 156">
  <defs>
    <polygon id="bot-7-a" points="50 8 82 52 18 52"/>
    <path id="bot-7-c" d="M126,79.5857961 L126,104 C126,112.836556 118.836556,120 110,120 L20,120 C11.163444,120 4,112.836556 4,104 L4,79.5857961 L0,79.5857961 L1.10489633e-15,41.0221632 C-6.41976585e-16,26.7578634 1.48520978,21.5852836 4.27412326,16.3704687 C7.06303674,11.1556539 11.1556539,7.06303674 16.3704687,4.27412326 C21.5852836,1.48520978 26.7578634,-7.71967361e-14 41.0221632,-7.98170454e-14 L88.9778368,-7.65023564e-14 C103.242137,-7.91226658e-14 108.414716,1.48520978 113.629531,4.27412326 C118.844346,7.06303674 122.936963,11.1556539 125.725877,16.3704687 C128.51479,21.5852836 130,26.7578634 130,41.0221632 L130,79.5857961 L126,79.5857961 Z"/>
  </defs>
  <g fill="none" fill-rule="evenodd" transform="translate(-25 -8)">
    <g transform="translate(41)">
      <mask id="bot-7-b" fill="#fff">
        <use xlink:href="#bot-7-a"/>
      </mask>
      <use fill="#E1E6E8" xlink:href="#bot-7-a"/>
      <g fill="#9CCC65" mask="url(#bot-7-b)">
        <rect width="100" height="52"/>
      </g>
      <rect width="30" height="48" x="50" y="4" fill="#FFF" fill-opacity=".8" mask="url(#bot-7-b)"/>
    </g>
    <g transform="translate(25 44)">
      <mask id="bot-7-d" fill="#fff">
        <use xlink:href="#bot-7-c"/>
      </mask>
      <use fill="#0076DE" xlink:href="#bot-7-c"/>
      <g fill="#DCEDC8" mask="url(#bot-7-d)">
        <rect width="134" height="120" transform="translate(-2)"/>
      </g>
      <rect width="122" height="40" x="4" y="80" fill="#000" fill-opacity=".8" mask="url(#bot-7-d)"/>
    </g>
    <g transform="translate(52 124)">
      <path fill="#F6E3D0" d="M38.000205,0 L76.000205,0 L76,21 C74.6982291,28.3333333 70.417878,32 63.1589466,32 C52.2706162,32 49.1374429,24.0000982 38.000205,24 C26.8628005,24 23.7296555,32 12.8412584,32 C5.58232699,32 1.30197584,28.3333333 0.000204963239,21 L-3.97903932e-13,0 L38.000205,0 Z"/>
      <path stroke="#A75548" stroke-linecap="round" stroke-width="4" d="M30,8 C30,12.418278 33.581722,16 38,16 C42.418278,16 46,12.418278 46,8"/>
    </g>
    <g transform="translate(38 76)">
      <rect width="104" height="42" y="4" fill="#000" fill-opacity=".8" rx="4"/>
      <rect width="10" height="11" x="28" y="25" fill="#8BDDFF" rx="2"/>
      <rect width="10" height="11" x="66" y="25" fill="#8BDDFF" rx="2"/>
      <polygon fill="#FFF" fill-opacity=".4" points="21 4 29 4 12 46 4 46"/>
    </g>
  </g>
</svg>
