<svg xmlns="http://www.w3.org/2000/svg" xmlns:xlink="http://www.w3.org/1999/xlink" width="130" height="120" viewBox="0 0 130 120">
  <defs>
    <path id="bot-32-a" d="M0,102 L0,68.8517092 C8.61074282e-15,64.3169266 0.771119772,59.8151606 2.28038666,55.5389045 L19.7614455,12.0092379 C22.3014253,4.81262825 29.1035817,1.42108547e-14 36.7352715,1.42108547e-14 L93.2647285,0 C100.896418,0 107.698575,4.81262825 110.238555,12.0092379 L127.719613,55.5389045 C129.22888,59.8151606 130,64.3169266 130,68.8517092 L130,102 C130,111.941125 121.941125,120 112,120 L18,120 C8.0588745,120 -1.8876423e-14,111.941125 0,102 Z"/>
  </defs>
  <g fill="none" fill-rule="evenodd" transform="translate(-25 -44)">
    <g transform="translate(25 44)">
      <mask id="bot-32-b" fill="#fff">
        <use xlink:href="#bot-32-a"/>
      </mask>
      <use fill="#0076DE" xlink:href="#bot-32-a"/>
      <g fill="#B0BEC5" mask="url(#bot-32-b)">
        <rect width="134" height="124" transform="translate(-2 -2)"/>
      </g>
    </g>
    <g transform="translate(52 124)">
      <rect width="8" height="27" fill="#0040AE" fill-opacity=".8"/>
      <g transform="translate(12)">
        <rect width="36" height="27" fill="#0040AE" fill-opacity=".8"/>
        <circle cx="18" cy="14" r="8" fill="#FFF" fill-opacity=".6"/>
      </g>
      <g fill="#000" fill-opacity=".4" transform="translate(52 2)">
        <circle cx="12" cy="12" r="12"/>
        <circle cx="12" cy="12" r="8.16"/>
      </g>
    </g>
    <g fill="#FFF" transform="translate(56 100)">
      <circle cx="6" cy="6" r="6"/>
      <circle cx="62" cy="6" r="6"/>
    </g>
  </g>
</svg>
