<svg xmlns="http://www.w3.org/2000/svg" xmlns:xlink="http://www.w3.org/1999/xlink" width="156" height="164" viewBox="0 0 156 164">
  <defs>
    <path id="bot-14-a" d="M12,20 L12,8.1277704 C12,6.34473292 12.1856512,5.69816044 12.5342654,5.04630859 C12.8828796,4.39445674 13.3944567,3.88287959 14.0463086,3.53426541 C14.6981604,3.18565122 15.3447329,3 17.1277704,3 L42.8722296,3 C44.6552671,3 45.3018396,3.18565122 45.9536914,3.53426541 C46.6055433,3.88287959 47.1171204,4.39445674 47.4657346,5.04630859 C47.8143488,5.69816044 48,6.34473292 48,8.1277704 L48,45.8722296 C48,47.6552671 47.8143488,48.3018396 47.4657346,48.9536914 C47.1171204,49.6055433 46.6055433,50.1171204 45.9536914,50.4657346 C45.3018396,50.8143488 44.6552671,51 42.8722296,51 L17.1277704,51 C15.3447329,51 14.6981604,50.8143488 14.0463086,50.4657346 C13.3944567,50.1171204 12.8828796,49.6055433 12.5342654,48.9536914 C12.1856512,48.3018396 12,47.6552671 12,45.8722296 L12,34 L5.1277704,34 C3.34473292,34 2.69816044,33.8143488 2.04630859,33.4657346 C1.39445674,33.1171204 0.882879593,32.6055433 0.534265408,31.9536914 C0.185651222,31.3018396 8.02470732e-17,30.6552671 -1.38112041e-16,28.8722296 L1.38112041e-16,25.1277704 C-8.02470732e-17,23.3447329 0.185651222,22.6981604 0.534265408,22.0463086 C0.882879593,21.3944567 1.39445674,20.8828796 2.04630859,20.5342654 C2.69816044,20.1856512 3.34473292,20 5.1277704,20 L12,20 Z M125.12777,17 L150.87223,17 C152.655267,17 153.30184,17.1856512 153.953691,17.5342654 C154.605543,17.8828796 155.11712,18.3944567 155.465735,19.0463086 C155.814349,19.6981604 156,20.3447329 156,22.1277704 L156,35.8722296 C156,37.6552671 155.814349,38.3018396 155.465735,38.9536914 C155.11712,39.6055433 154.605543,40.1171204 153.953691,40.4657346 C153.30184,40.8143488 152.655267,41 150.87223,41 L125.12777,41 C123.344733,41 122.69816,40.8143488 122.046309,40.4657346 C121.394457,40.1171204 120.88288,39.6055433 120.534265,38.9536914 C120.185651,38.3018396 120,37.6552671 120,35.8722296 L120,22.1277704 C120,20.3447329 120.185651,19.6981604 120.534265,19.0463086 C120.88288,18.3944567 121.394457,17.8828796 122.046309,17.5342654 C122.69816,17.1856512 123.344733,17 125.12777,17 Z M5,0 L7,0 L7,20 L5,20 L5,0 Z"/>
    <path id="bot-14-c" d="M47.9411255,31.5810711 C46.4603547,30.7251846 45.0658376,29.6638174 43.7989899,28.3969696 C35.988504,20.5864838 35.988504,7.92318421 43.7989899,0.112698372 L57.2340187,13.5477272 L63.6870876,7.09465837 C62.7811534,5.56075283 62.987153,3.55195222 64.3050865,2.23401872 C65.8671837,0.671921549 68.3998436,0.671921549 69.9619408,2.23401872 C71.5240379,3.79611588 71.5240379,6.3287758 69.9619408,7.89087297 C68.6440073,9.20880647 66.6352067,9.41480612 65.1013011,8.50887193 L58.6482323,14.9619408 L72.0832611,28.3969696 C66.6329618,33.8472689 58.8195836,35.4942501 51.9411255,33.3379131 L51.9411255,52.1126984 L47.9411255,52.1126984 L47.9411255,31.5810711 Z"/>
    <rect id="bot-14-e" width="130" height="120" rx="18"/>
  </defs>
  <g fill="none" fill-rule="evenodd" transform="translate(-6)">
    <g transform="translate(0 66)">
      <g transform="translate(6 11)">
        <mask id="bot-14-b" fill="#fff">
          <use xlink:href="#bot-14-a"/>
        </mask>
        <use fill="#0076DE" xlink:href="#bot-14-a"/>
        <g fill="#4DD0E1" mask="url(#bot-14-b)">
          <rect width="180" height="76" transform="translate(-6 -11)"/>
        </g>
        <rect width="180" height="38" x="-6" y="27" fill="#000" fill-opacity=".1" mask="url(#bot-14-b)"/>
      </g>
      <g transform="translate(8 4)">
        <rect width="2" height="20" x="3" y="7" fill="#FFF" fill-opacity=".4"/>
        <circle cx="4" cy="4" r="4" fill="#FFEA8F"/>
        <circle cx="5" cy="3" r="2" fill="#FFF"/>
      </g>
    </g>
    <g transform="translate(41)">
      <mask id="bot-14-d" fill="#fff">
        <use xlink:href="#bot-14-c"/>
      </mask>
      <use fill="#E1E6E8" xlink:href="#bot-14-c"/>
      <g fill="#4DD0E1" mask="url(#bot-14-d)">
        <rect width="100" height="52"/>
      </g>
      <path fill="#FFF" fill-opacity=".2" d="M43.7989899,0.112698372 C35.988504,7.92318421 35.988504,20.5864838 43.7989899,28.3969696 C51.6094757,36.2074555 64.2727753,36.2074555 72.0832611,28.3969696" mask="url(#bot-14-d)"/>
      <circle cx="67.134" cy="5.062" r="4" fill="#FFF" fill-opacity=".8" mask="url(#bot-14-d)"/>
    </g>
    <g transform="translate(25 44)">
      <mask id="bot-14-f" fill="#fff">
        <use xlink:href="#bot-14-e"/>
      </mask>
      <use fill="#0076DE" xlink:href="#bot-14-e"/>
      <g fill="#EA80FC" mask="url(#bot-14-f)">
        <rect width="134" height="124" transform="translate(-2 -2)"/>
      </g>
      <g fill="#000" mask="url(#bot-14-f)">
        <g transform="translate(-1 -1)">
          <path fill-opacity=".2" d="M-9.11955629,122.092261 C-4.75864768,91.4015967 3.93799819,117.533631 24.8655794,112.12396 C34.1114596,109.733948 26.640969,99.2957595 33.5369251,94.7717324 C39.3618156,90.9503678 47.2997509,94.0293736 53.9721466,91.5579533 C63.6014225,87.99132 63.4748482,80.7354599 72.4469492,79.6510309 C80.9317383,78.6255016 89.8203396,82.0049911 98.377883,80.7354599 C114.52834,78.3395026 107.906382,46.7111063 120.01742,41.1251889 C132.128458,35.5392715 152.06764,45.1858521 154.677658,61 C156.373936,71.2777829 151.55461,95.5377314 140.21968,133.779846 L-9.11955629,133.779846"/>
          <path fill-opacity=".1" d="M35.9268464,122 C73.6043905,122 77.5268977,107.25032 96.0650387,100.492846 C114.60318,93.7353716 130.845661,111.213512 137.077849,94.2331339 C141.232642,82.9128816 143.298631,94.895504 143.275816,130.181001 L35.9268464,130.181001 L35.9268464,122 Z"/>
          <path fill-opacity=".4" d="M-2,4.86732511 C9.73320733,3.74652018 5.96193192,16.806064 10.5973598,16.806064 C12.4464321,16.806064 14.6252877,8.34889769 17.983215,8.34889769 C20.4379638,8.34889769 19.9753096,13.8424996 25.3050084,13.2617118 C30.3076746,12.7165614 29.3753984,9.26870987 31.9026708,9.26870987 C37.3453964,9.26870987 35.2872819,29.4636252 39.6440681,29.4636252 C44.0008542,29.4636252 45.3737266,14.6679622 47.2914382,8.8163548 C49.7180554,1.41189864 64.2635329,-2.73836446 53.8922857,-5.67986809 L-2.28674568,-5.67986809"/>
        </g>
      </g>
    </g>
    <path fill="#000" fill-opacity=".6" fill-rule="nonzero" d="M27.0493387,8.44149809 C26.8055061,7.36417761 27.4811814,6.29317138 28.5585019,6.04933872 C29.6358224,5.80550606 30.7068286,6.48118143 30.9506613,7.55850191 C31.7200297,10.9577855 34.4016537,13 38,13 C41.5983463,13 44.2799703,10.9577855 45.0493387,7.55850191 C45.2931714,6.48118143 46.3641776,5.80550606 47.4414981,6.04933872 C48.5188186,6.29317138 49.1944939,7.36417761 48.9506613,8.44149809 C47.759948,13.7024002 43.4298825,17 38,17 C32.5701175,17 28.240052,13.7024002 27.0493387,8.44149809 Z" transform="translate(52 124)"/>
    <g stroke="#000" stroke-linecap="round" stroke-linejoin="round" stroke-width="4" transform="translate(38 76)">
      <path d="M18 19L30 17M20 31C20 27.686 22.9098333 25 27 25 30.0901667 25 33 27.686 33 31M86 20L74 17M84 31C84 27.686 81.0901667 25 78 25 73.9098333 25 71 27.686 71 31"/>
    </g>
  </g>
</svg>
