<svg xmlns="http://www.w3.org/2000/svg" xmlns:xlink="http://www.w3.org/1999/xlink" width="165" height="164" viewBox="0 0 165 164">
  <defs>
    <path id="bot-9-a" d="M160,15.0003274 C161.68664,15.0091031 162.317652,15.194108 162.953691,15.5342654 C163.605543,15.8828796 164.11712,16.3944567 164.465735,17.0463086 C164.814349,17.6981604 165,18.3447329 165,20.1277704 L165,39.8722296 C165,41.6552671 164.814349,42.3018396 164.465735,42.9536914 C164.11712,43.6055433 163.605543,44.1171204 162.953691,44.4657346 C162.317652,44.805892 161.68664,44.9908969 160,44.9996726 L160,54.8722296 C160,56.6552671 159.814349,57.3018396 159.465735,57.9536914 C159.11712,58.6055433 158.605543,59.1171204 157.953691,59.4657346 C157.30184,59.8143488 156.655267,60 154.87223,60 L129.12777,60 C127.344733,60 126.69816,59.8143488 126.046309,59.4657346 C125.394457,59.1171204 124.88288,58.6055433 124.534265,57.9536914 C124.185651,57.3018396 124,56.6552671 124,54.8722296 L124,5.1277704 C124,3.34473292 124.185651,2.69816044 124.534265,2.04630859 C124.88288,1.39445674 125.394457,0.882879593 126.046309,0.534265408 C126.69816,0.185651222 127.344733,1.2037061e-16 129.12777,-2.07168062e-16 L154.87223,2.07168062e-16 C156.655267,-1.2037061e-16 157.30184,0.185651222 157.953691,0.534265408 C158.605543,0.882879593 159.11712,1.39445674 159.465735,2.04630859 C159.814349,2.69816044 160,3.34473292 160,5.1277704 L160,15.0003274 Z M10,23 L10,12.1277704 C10,10.3447329 10.1856512,9.69816044 10.5342654,9.04630859 C10.8828796,8.39445674 11.3944567,7.88287959 12.0463086,7.53426541 C12.6981604,7.18565122 13.3447329,7 15.1277704,7 L30.8722296,7 C32.6552671,7 33.3018396,7.18565122 33.9536914,7.53426541 C34.6055433,7.88287959 35.1171204,8.39445674 35.4657346,9.04630859 C35.8143488,9.69816044 36,10.3447329 36,12.1277704 L36,28.1277704 L36,47.8722296 C36,49.6552671 35.8143488,50.3018396 35.4657346,50.9536914 C35.1171204,51.6055433 34.6055433,52.1171204 33.9536914,52.4657346 C33.3018396,52.8143488 32.6552671,53 30.8722296,53 L5.1277704,53 C3.34473292,53 2.69816044,52.8143488 2.04630859,52.4657346 C1.39445674,52.1171204 0.882879593,51.6055433 0.534265408,50.9536914 C0.185651222,50.3018396 8.02470732e-17,49.6552671 -1.38112041e-16,47.8722296 L1.38112041e-16,28.1277704 C-8.02470732e-17,26.3447329 0.185651222,25.6981604 0.534265408,25.0463086 C0.882879593,24.3944567 1.39445674,23.8828796 2.04630859,23.5342654 C2.69816044,23.1856512 3.34473292,23 5.1277704,23 L10,23 Z"/>
    <path id="bot-9-c" d="M47.9411255,31.5810711 C46.4603547,30.7251846 45.0658376,29.6638174 43.7989899,28.3969696 C35.988504,20.5864838 35.988504,7.92318421 43.7989899,0.112698372 L57.2340187,13.5477272 L63.6870876,7.09465837 C62.7811534,5.56075283 62.987153,3.55195222 64.3050865,2.23401872 C65.8671837,0.671921549 68.3998436,0.671921549 69.9619408,2.23401872 C71.5240379,3.79611588 71.5240379,6.3287758 69.9619408,7.89087297 C68.6440073,9.20880647 66.6352067,9.41480612 65.1013011,8.50887193 L58.6482323,14.9619408 L72.0832611,28.3969696 C66.6329618,33.8472689 58.8195836,35.4942501 51.9411255,33.3379131 L51.9411255,52.1126984 L47.9411255,52.1126984 L47.9411255,31.5810711 Z"/>
    <path id="bot-9-e" d="M0,102 L0,68.8517092 C8.61074282e-15,64.3169266 0.771119772,59.8151606 2.28038666,55.5389045 L19.7614455,12.0092379 C22.3014253,4.81262825 29.1035817,1.42108547e-14 36.7352715,1.42108547e-14 L93.2647285,0 C100.896418,0 107.698575,4.81262825 110.238555,12.0092379 L127.719613,55.5389045 C129.22888,59.8151606 130,64.3169266 130,68.8517092 L130,102 C130,111.941125 121.941125,120 112,120 L18,120 C8.0588745,120 -1.8876423e-14,111.941125 0,102 Z"/>
    <path id="bot-9-g" d="M82.8310869,34 C78.274254,34.204594 75.2818899,35.6397034 73.8539945,38.3053279 C72.6354507,40.5801306 70.2641433,41.9999868 67.6835279,41.9999882 L52,42 L36.9013298,41.9999891 C34.0681565,41.9999875 31.4462964,40.5014832 30.0083339,38.0603493 C28.5305922,35.551685 25.5841186,34.1982352 21.1689131,34 L8,34 C3.581722,34 5.41083001e-16,30.418278 0,26 L0,8 C-5.41083001e-16,3.581722 3.581722,8.11624501e-16 8,0 L96,0 C100.418278,-8.11624501e-16 104,3.581722 104,8 L104,26 C104,30.418278 100.418278,34 96,34 L82.8310869,34 Z"/>
  </defs>
  <g fill="none" fill-rule="evenodd" transform="translate(-10)">
    <g transform="translate(10 74)">
      <mask id="bot-9-b" fill="#fff">
        <use xlink:href="#bot-9-a"/>
      </mask>
      <use fill="#0076DE" xlink:href="#bot-9-a"/>
      <g fill="#E57373" mask="url(#bot-9-b)">
        <rect width="180" height="76" transform="translate(-10 -8)"/>
      </g>
      <rect width="180" height="29" x="-10" y="39" fill="#000" fill-opacity=".1" mask="url(#bot-9-b)"/>
      <circle cx="151" cy="12" r="5" fill="#FFF" fill-opacity=".6" mask="url(#bot-9-b)"/>
      <circle cx="151" cy="28" r="5" fill="#FFF" fill-opacity=".6" mask="url(#bot-9-b)"/>
    </g>
    <g transform="translate(41)">
      <mask id="bot-9-d" fill="#fff">
        <use xlink:href="#bot-9-c"/>
      </mask>
      <use fill="#E1E6E8" xlink:href="#bot-9-c"/>
      <g fill="#D50000" mask="url(#bot-9-d)">
        <rect width="100" height="52"/>
      </g>
      <path fill="#FFF" fill-opacity=".2" d="M43.7989899,0.112698372 C35.988504,7.92318421 35.988504,20.5864838 43.7989899,28.3969696 C51.6094757,36.2074555 64.2727753,36.2074555 72.0832611,28.3969696" mask="url(#bot-9-d)"/>
      <circle cx="67.134" cy="5.062" r="4" fill="#FFF" fill-opacity=".8" mask="url(#bot-9-d)"/>
    </g>
    <g transform="translate(25 44)">
      <mask id="bot-9-f" fill="#fff">
        <use xlink:href="#bot-9-e"/>
      </mask>
      <use fill="#0076DE" xlink:href="#bot-9-e"/>
      <g fill="#FFF" mask="url(#bot-9-f)">
        <rect width="134" height="124" transform="translate(-2 -2)"/>
      </g>
      <g fill="#000" mask="url(#bot-9-f)">
        <g transform="translate(-1 -1)">
          <path fill-opacity=".2" d="M-20,124.648555 C-16.811588,107.308454 -10.4531676,122.072947 4.84771523,119.016505 C11.6077,117.666158 6.14576431,111.768624 11.1876378,109.212567 C15.4464179,107.053511 21.2501186,108.793137 26.1285392,107.396795 C33.1688379,105.381661 33.076295,101.28213 39.6361103,100.669432 C45.8396348,100.090012 52.3384005,101.99941 58.5951182,101.28213 C70.4032792,99.9284239 65.5617357,82.0585087 74.4165368,78.902488 C83.2713379,75.7464674 97.8495674,81.1967462 99.7578423,90.1316754 C100.99805,95.938581 97.4744737,109.645353 89.187112,131.251992 L-20,131.251992" transform="matrix(-1 0 0 1 80 0)"/>
          <path fill-opacity=".1" d="M-10,116.766616 C41.2432666,116.766616 46.5780646,90.9746332 71.7908251,79.1581974 C97.0035857,67.3417617 119.094139,97.9048577 127.570214,68.2121722 C133.220931,48.4170485 136.030775,69.3704236 135.999746,131.072298 L-10,131.072298 L-10,116.766616 Z" transform="matrix(-1 0 0 1 126 0)"/>
          <path fill-opacity=".4" d="M81.2916974,3.17587305 C93.2275238,2.20079242 86.321669,13.9842725 91.0371454,13.9842725 C98.0044934,13.9842725 93.1398947,6.00620803 101.62,6.20478012 C103.83957,6.25675408 106.563717,8.14434394 106.732126,10.7089898 C107.093966,16.2193464 103.015188,25.7252553 108.570487,25.9952874 C113.749725,26.2470398 109.673776,16.3561956 110.214935,9.75934414 C110.524385,5.98709048 114.397472,3.0074528 117.183163,3.0074528 C124.754416,3.0074528 118.868741,18.7147098 124.318032,18.7147098 C129.767324,18.7147098 125.526609,9.66391004 129.399805,4.87149468 C133.902864,-0.700269812 148.699526,-3.44094345 138.149179,-6 L81,-6" transform="matrix(-1 0 0 1 222.867 0)"/>
        </g>
      </g>
    </g>
    <rect width="44" height="4" x="16" y="8" fill="#000" fill-opacity=".8" rx="2" transform="translate(52 124)"/>
    <g transform="translate(38 78)">
      <mask id="bot-9-h" fill="#fff">
        <use xlink:href="#bot-9-g"/>
      </mask>
      <use fill="#000" fill-opacity=".8" xlink:href="#bot-9-g"/>
      <path fill="#FF3D3D" d="M74.8310869,24 C70.2742542,24.204594 67.2818901,25.6397032 65.8539947,28.3053276 C64.6854389,30.4868112 62.4567598,31.8820547 60,31.9928601 L60,32 L44.9013298,31.9999891 C42.0681565,31.9999875 39.4462964,30.5014832 38.0083339,28.0603493 C36.5305922,25.551685 33.5841186,24.1982352 29.1689131,24 L17,24 C14.2385763,24 12,21.7614237 12,19 L12,17 C12,14.2385763 14.2385763,12 17,12 L87,12 C89.7614237,12 92,14.2385763 92,17 L92,19 C92,21.7614237 89.7614237,24 87,24 L74.8310869,24 Z" mask="url(#bot-9-h)"/>
      <path fill="#FFF" fill-opacity=".2" d="M39,-4 L50,-4 L30,42 L19,42 L39,-4 Z M28,-4 L32,-4 L12,42 L8,42 L28,-4 Z" mask="url(#bot-9-h)"/>
    </g>
  </g>
</svg>
