<svg xmlns="http://www.w3.org/2000/svg" xmlns:xlink="http://www.w3.org/1999/xlink" width="156" height="120" viewBox="0 0 156 120">
  <defs>
    <path id="bot-26-a" d="M152,61 C141.954305,61 132,50.9264069 132,39 C132,26.0735931 141.954305,16 152,16 C162.045695,16 168,26.0735931 168,39 C168,50.9264069 162.045695,61 152,61 Z M28,61 C17.954305,61 12,50.9264069 12,39 C12,26.0735931 17.954305,16 28,16 C38.045695,16 48,26.0735931 48,39 C48,50.9264069 38.045695,61 28,61 Z"/>
    <path id="bot-26-c" d="M0,89 C0,88.9795073 0.0141049326,89.1836401 0,90 C0.183374957,90.4764708 0.402008635,91.4971444 1,93 C1.82671155,96.0560243 3.7804036,99.5565275 7,103 C16.6943975,113.399831 35.1723647,120 65,120 C94.8276353,120 113.305603,113.399637 123,103 C126.219596,99.5565275 128.173198,96.0560243 129,93 C129.597973,91.4971251 129.816625,90.4764321 130,90 C129.985895,89.1836498 130,88.9795151 130,89 L130,50 C130,50.1036464 129.971788,49.4988099 130,49 C129.739042,46.8828777 129.471022,44.9851234 129,43 C127.813584,37.0088305 125.606104,31.0889814 122,26 C112.282973,9.66267383 94.2553094,0 65,0 C35.7447556,0 17.7163695,9.66228674 8,26 C4.39414151,31.089175 2.18649928,37.0088305 1,43 C0.529043306,44.9851234 0.26102792,46.8828583 0,49 C0.0282766705,49.4534424 6.49996895e-05,50.3228972 0,50 L0,89 Z"/>
  </defs>
  <g fill="none" fill-rule="evenodd" transform="translate(-12 -44)">
    <g transform="translate(0 66)">
      <mask id="bot-26-b" fill="#fff">
        <use xlink:href="#bot-26-a"/>
      </mask>
      <use fill="#E1E6E8" xlink:href="#bot-26-a"/>
      <g fill="#FF0" mask="url(#bot-26-b)">
        <rect width="180" height="76"/>
      </g>
      <rect width="140" height="76" x="20" fill="#000" fill-opacity=".2" mask="url(#bot-26-b)"/>
    </g>
    <g transform="translate(25 44)">
      <mask id="bot-26-d" fill="#fff">
        <use xlink:href="#bot-26-c"/>
      </mask>
      <use fill="#E1E6E8" transform="matrix(1 0 0 -1 0 120)" xlink:href="#bot-26-c"/>
      <g fill="#2962FF" mask="url(#bot-26-d)">
        <rect width="138" height="124" transform="translate(-4 -2)"/>
      </g>
    </g>
    <g fill="#000" fill-opacity=".6" transform="translate(66 134)">
      <rect width="6" height="14" x="14" rx="2"/>
      <rect width="6" height="14" rx="2"/>
      <rect width="6" height="14" x="28" rx="2"/>
      <rect width="6" height="14" x="42" rx="2"/>
    </g>
    <g transform="translate(38 76)">
      <rect width="88" height="36" x="8" y="10" fill="#000" fill-opacity=".8" rx="4"/>
      <rect width="10" height="17" x="28" y="21" fill="#5EF2B8" rx="2"/>
      <rect width="10" height="17" x="66" y="21" fill="#5EF2B8" rx="2"/>
      <polygon fill="#FFF" fill-opacity=".4" points="83 10 88 10 76 46 71 46"/>
    </g>
  </g>
</svg>
