<svg xmlns="http://www.w3.org/2000/svg" xmlns:xlink="http://www.w3.org/1999/xlink" width="156" height="164" viewBox="0 0 156 164">
  <defs>
    <path id="bot-29-a" d="M152,61 C141.954305,61 132,50.9264069 132,39 C132,26.0735931 141.954305,16 152,16 C162.045695,16 168,26.0735931 168,39 C168,50.9264069 162.045695,61 152,61 Z M28,61 C17.954305,61 12,50.9264069 12,39 C12,26.0735931 17.954305,16 28,16 C38.045695,16 48,26.0735931 48,39 C48,50.9264069 38.045695,61 28,61 Z"/>
    <path id="bot-29-c" d="M10,31 L10,0 L14,0 L14,31 L22,31 C23.1045695,31 24,31.8954305 24,33 L24,47 L0,47 L0,33 C-1.3527075e-16,31.8954305 0.8954305,31 2,31 L10,31 Z"/>
    <path id="bot-29-e" d="M12,0 L118,0 C124.627417,-1.21743675e-15 130,5.372583 130,12 L130,82 C130,102.98682 112.98682,120 92,120 L38,120 C17.0131795,120 2.57014425e-15,102.98682 0,82 L0,12 C-8.11624501e-16,5.372583 5.372583,1.21743675e-15 12,0 Z"/>
  </defs>
  <g fill="none" fill-rule="evenodd" transform="translate(-12)">
    <g transform="translate(0 66)">
      <mask id="bot-29-b" fill="#fff">
        <use xlink:href="#bot-29-a"/>
      </mask>
      <use fill="#E1E6E8" xlink:href="#bot-29-a"/>
      <g fill="#1A237E" mask="url(#bot-29-b)">
        <rect width="180" height="76"/>
      </g>
      <rect width="140" height="76" x="20" fill="#000" fill-opacity=".2" mask="url(#bot-29-b)"/>
    </g>
    <g transform="translate(41)">
      <g transform="translate(38 5)">
        <mask id="bot-29-d" fill="#fff">
          <use xlink:href="#bot-29-c"/>
        </mask>
        <use fill="#E1E6E8" xlink:href="#bot-29-c"/>
        <g fill="#1A237E" mask="url(#bot-29-d)">
          <rect width="100" height="52" transform="translate(-38 -5)"/>
        </g>
        <rect width="24" height="16" y="31" fill="#FFF" fill-opacity=".2" mask="url(#bot-29-d)"/>
      </g>
      <circle cx="50" cy="8" r="8" fill="#FFE65C"/>
      <circle cx="53" cy="5" r="3" fill="#FFF"/>
    </g>
    <g transform="translate(25 44)">
      <mask id="bot-29-f" fill="#fff">
        <use xlink:href="#bot-29-e"/>
      </mask>
      <use fill="#0076DE" xlink:href="#bot-29-e"/>
      <g fill="#E1BEE7" mask="url(#bot-29-f)">
        <rect width="134" height="124" transform="translate(-2 -2)"/>
      </g>
      <g fill="#000" mask="url(#bot-29-f)">
        <g transform="translate(-1 -1)">
          <path fill-opacity=".2" d="M-20,124.648555 C-16.811588,107.308454 -10.4531676,122.072947 4.84771523,119.016505 C11.6077,117.666158 6.14576431,111.768624 11.1876378,109.212567 C15.4464179,107.053511 21.2501186,108.793137 26.1285392,107.396795 C33.1688379,105.381661 33.076295,101.28213 39.6361103,100.669432 C45.8396348,100.090012 52.3384005,101.99941 58.5951182,101.28213 C70.4032792,99.9284239 65.5617357,82.0585087 74.4165368,78.902488 C83.2713379,75.7464674 97.8495674,81.1967462 99.7578423,90.1316754 C100.99805,95.938581 97.4744737,109.645353 89.187112,131.251992 L-20,131.251992" transform="matrix(-1 0 0 1 80 0)"/>
          <path fill-opacity=".1" d="M-10,116.766616 C41.2432666,116.766616 46.5780646,90.9746332 71.7908251,79.1581974 C97.0035857,67.3417617 119.094139,97.9048577 127.570214,68.2121722 C133.220931,48.4170485 136.030775,69.3704236 135.999746,131.072298 L-10,131.072298 L-10,116.766616 Z" transform="matrix(-1 0 0 1 126 0)"/>
          <path fill-opacity=".4" d="M81.2916974,3.17587305 C93.2275238,2.20079242 86.321669,13.9842725 91.0371454,13.9842725 C98.0044934,13.9842725 93.1398947,6.00620803 101.62,6.20478012 C103.83957,6.25675408 106.563717,8.14434394 106.732126,10.7089898 C107.093966,16.2193464 103.015188,25.7252553 108.570487,25.9952874 C113.749725,26.2470398 109.673776,16.3561956 110.214935,9.75934414 C110.524385,5.98709048 114.397472,3.0074528 117.183163,3.0074528 C124.754416,3.0074528 118.868741,18.7147098 124.318032,18.7147098 C129.767324,18.7147098 125.526609,9.66391004 129.399805,4.87149468 C133.902864,-0.700269812 148.699526,-3.44094345 138.149179,-6 L81,-6" transform="matrix(-1 0 0 1 222.867 0)"/>
        </g>
      </g>
    </g>
    <rect width="44" height="4" x="16" y="8" fill="#000" fill-opacity=".8" rx="2" transform="translate(52 124)"/>
    <g transform="translate(46 80)">
      <path fill="#000" fill-opacity=".2" d="M81.4160437,22 L39.9012495,22 C38.8978007,32.1066454 30.3706962,40 20,40 C8.954305,40 0,31.045695 0,20 C0,8.954305 8.954305,0 20,0 C30.3706962,0 38.8978007,7.89335461 39.9012495,18 L81.4160437,18 C82.1876003,16.2340952 83.949681,15 86,15 C88.7614237,15 91,17.2385763 91,20 C91,22.7614237 88.7614237,25 86,25 C83.949681,25 82.1876003,23.7659048 81.4160437,22 Z"/>
      <circle cx="86" cy="20" r="2" fill="#FFF"/>
      <circle cx="20" cy="20" r="16" fill="#000" fill-opacity=".6"/>
      <circle cx="26" cy="12" r="3" fill="#FFF"/>
    </g>
  </g>
</svg>
