<svg xmlns="http://www.w3.org/2000/svg" xmlns:xlink="http://www.w3.org/1999/xlink" width="130" height="120" viewBox="0 0 130 120">
  <defs>
    <path id="bot-16-a" d="M0,102 L0,68.8517092 C8.61074282e-15,64.3169266 0.771119772,59.8151606 2.28038666,55.5389045 L19.7614455,12.0092379 C22.3014253,4.81262825 29.1035817,1.42108547e-14 36.7352715,1.42108547e-14 L93.2647285,0 C100.896418,0 107.698575,4.81262825 110.238555,12.0092379 L127.719613,55.5389045 C129.22888,59.8151606 130,64.3169266 130,68.8517092 L130,102 C130,111.941125 121.941125,120 112,120 L18,120 C8.0588745,120 -1.8876423e-14,111.941125 0,102 Z"/>
  </defs>
  <g fill="none" fill-rule="evenodd" transform="translate(-25 -44)">
    <g transform="translate(25 44)">
      <mask id="bot-16-b" fill="#fff">
        <use xlink:href="#bot-16-a"/>
      </mask>
      <use fill="#0076DE" xlink:href="#bot-16-a"/>
      <g fill="#B0BEC5" mask="url(#bot-16-b)">
        <rect width="134" height="124" transform="translate(-2 -2)"/>
      </g>
    </g>
    <g transform="translate(52 124)">
      <rect width="8" height="27" fill="#0040AE" fill-opacity=".8"/>
      <g transform="translate(12)">
        <rect width="36" height="27" fill="#0040AE" fill-opacity=".8"/>
        <circle cx="18" cy="14" r="8" fill="#FFF" fill-opacity=".6"/>
      </g>
      <g fill="#000" fill-opacity=".4" transform="translate(52 2)">
        <circle cx="12" cy="12" r="12"/>
        <circle cx="12" cy="12" r="8.16"/>
      </g>
    </g>
    <g fill="#FF5353" fill-opacity=".8" fill-rule="nonzero" transform="translate(38 76)">
      <path d="M29.9583333,10 C27.4074091,10 24.8837273,11.9797894 23.5,13.8206358 C22.1106364,11.9797894 19.5925909,10 17.0416667,10 C11.5523182,10 8,13.3341032 8,17.6412715 C8,23.3708668 12.4118636,26.771228 17.0416667,30.376724 C18.695,31.6133636 21.8223436,34.7777086 22.2083333,35.470905 C22.5943231,36.1641015 24.3143077,36.1885229 24.7916667,35.470905 C25.2690257,34.7532872 28.3021818,31.6133636 29.9583333,30.376724 C34.5853182,26.771228 39,23.3708668 39,17.6412715 C39,13.3341032 35.4476818,10 29.9583333,10 Z" transform="rotate(-3 23.5 23)"/>
      <path d="M86.9583333,10 C84.4074091,10 81.8837273,11.9797894 80.5,13.8206358 C79.1106364,11.9797894 76.5925909,10 74.0416667,10 C68.5523182,10 65,13.3341032 65,17.6412715 C65,23.3708668 69.4118636,26.771228 74.0416667,30.376724 C75.695,31.6133636 78.8223436,34.7777086 79.2083333,35.470905 C79.5943231,36.1641015 81.3143077,36.1885229 81.7916667,35.470905 C82.2690257,34.7532872 85.3021818,31.6133636 86.9583333,30.376724 C91.5853182,26.771228 96,23.3708668 96,17.6412715 C96,13.3341032 92.4476818,10 86.9583333,10 Z" transform="rotate(3 80.5 23)"/>
    </g>
  </g>
</svg>
