<svg xmlns="http://www.w3.org/2000/svg" xmlns:xlink="http://www.w3.org/1999/xlink" width="156" height="164" viewBox="0 0 156 164">
  <defs>
    <path id="bot-17-a" d="M12,20 L12,8.1277704 C12,6.34473292 12.1856512,5.69816044 12.5342654,5.04630859 C12.8828796,4.39445674 13.3944567,3.88287959 14.0463086,3.53426541 C14.6981604,3.18565122 15.3447329,3 17.1277704,3 L42.8722296,3 C44.6552671,3 45.3018396,3.18565122 45.9536914,3.53426541 C46.6055433,3.88287959 47.1171204,4.39445674 47.4657346,5.04630859 C47.8143488,5.69816044 48,6.34473292 48,8.1277704 L48,45.8722296 C48,47.6552671 47.8143488,48.3018396 47.4657346,48.9536914 C47.1171204,49.6055433 46.6055433,50.1171204 45.9536914,50.4657346 C45.3018396,50.8143488 44.6552671,51 42.8722296,51 L17.1277704,51 C15.3447329,51 14.6981604,50.8143488 14.0463086,50.4657346 C13.3944567,50.1171204 12.8828796,49.6055433 12.5342654,48.9536914 C12.1856512,48.3018396 12,47.6552671 12,45.8722296 L12,34 L5.1277704,34 C3.34473292,34 2.69816044,33.8143488 2.04630859,33.4657346 C1.39445674,33.1171204 0.882879593,32.6055433 0.534265408,31.9536914 C0.185651222,31.3018396 8.02470732e-17,30.6552671 -1.38112041e-16,28.8722296 L1.38112041e-16,25.1277704 C-8.02470732e-17,23.3447329 0.185651222,22.6981604 0.534265408,22.0463086 C0.882879593,21.3944567 1.39445674,20.8828796 2.04630859,20.5342654 C2.69816044,20.1856512 3.34473292,20 5.1277704,20 L12,20 Z M125.12777,17 L150.87223,17 C152.655267,17 153.30184,17.1856512 153.953691,17.5342654 C154.605543,17.8828796 155.11712,18.3944567 155.465735,19.0463086 C155.814349,19.6981604 156,20.3447329 156,22.1277704 L156,35.8722296 C156,37.6552671 155.814349,38.3018396 155.465735,38.9536914 C155.11712,39.6055433 154.605543,40.1171204 153.953691,40.4657346 C153.30184,40.8143488 152.655267,41 150.87223,41 L125.12777,41 C123.344733,41 122.69816,40.8143488 122.046309,40.4657346 C121.394457,40.1171204 120.88288,39.6055433 120.534265,38.9536914 C120.185651,38.3018396 120,37.6552671 120,35.8722296 L120,22.1277704 C120,20.3447329 120.185651,19.6981604 120.534265,19.0463086 C120.88288,18.3944567 121.394457,17.8828796 122.046309,17.5342654 C122.69816,17.1856512 123.344733,17 125.12777,17 Z M5,0 L7,0 L7,20 L5,20 L5,0 Z"/>
    <path id="bot-17-c" d="M10,31 L10,0 L14,0 L14,31 L22,31 C23.1045695,31 24,31.8954305 24,33 L24,47 L0,47 L0,33 C-1.3527075e-16,31.8954305 0.8954305,31 2,31 L10,31 Z"/>
    <path id="bot-17-e" d="M66,0 C124.351567,0 130.000727,40.6854074 130,78 C129.999351,111.314593 104.534073,120 66,120 C28.5386545,120 2.20992466e-15,111.314593 0,78 C0,40.6854074 7.64843282,6.59631323e-15 66,0 Z"/>
  </defs>
  <g fill="none" fill-rule="evenodd" transform="translate(-6)">
    <g transform="translate(0 66)">
      <g transform="translate(6 11)">
        <mask id="bot-17-b" fill="#fff">
          <use xlink:href="#bot-17-a"/>
        </mask>
        <use fill="#0076DE" xlink:href="#bot-17-a"/>
        <g fill="#FFF" mask="url(#bot-17-b)">
          <rect width="180" height="76" transform="translate(-6 -11)"/>
        </g>
        <rect width="180" height="38" x="-6" y="27" fill="#000" fill-opacity=".1" mask="url(#bot-17-b)"/>
      </g>
      <g transform="translate(8 4)">
        <rect width="2" height="20" x="3" y="7" fill="#FFF" fill-opacity=".4"/>
        <circle cx="4" cy="4" r="4" fill="#FFEA8F"/>
        <circle cx="5" cy="3" r="2" fill="#FFF"/>
      </g>
    </g>
    <g transform="translate(41)">
      <g transform="translate(38 5)">
        <mask id="bot-17-d" fill="#fff">
          <use xlink:href="#bot-17-c"/>
        </mask>
        <use fill="#E1E6E8" xlink:href="#bot-17-c"/>
        <g fill="#FFF" mask="url(#bot-17-d)">
          <rect width="100" height="52" transform="translate(-38 -5)"/>
        </g>
        <rect width="24" height="16" y="31" fill="#FFF" fill-opacity=".2" mask="url(#bot-17-d)"/>
      </g>
      <circle cx="50" cy="8" r="8" fill="#FFE65C"/>
      <circle cx="53" cy="5" r="3" fill="#FFF"/>
    </g>
    <g transform="translate(25 44)">
      <mask id="bot-17-f" fill="#fff">
        <use xlink:href="#bot-17-e"/>
      </mask>
      <use fill="#000" fill-opacity=".8" xlink:href="#bot-17-e"/>
      <g fill="#FFF" mask="url(#bot-17-f)">
        <rect width="138" height="124" transform="translate(-4 -2)"/>
      </g>
    </g>
    <g fill="#000" fill-opacity=".6" transform="translate(66 134)">
      <rect width="6" height="14" x="14" rx="2"/>
      <rect width="6" height="14" rx="2"/>
      <rect width="6" height="14" x="28" rx="2"/>
      <rect width="6" height="14" x="42" rx="2"/>
    </g>
    <g transform="translate(38 76)">
      <rect width="104" height="42" y="4" fill="#000" fill-opacity=".8" rx="4"/>
      <rect width="10" height="11" x="28" y="25" fill="#8BDDFF" rx="2"/>
      <rect width="10" height="11" x="66" y="25" fill="#8BDDFF" rx="2"/>
      <polygon fill="#FFF" fill-opacity=".4" points="21 4 29 4 12 46 4 46"/>
    </g>
  </g>
</svg>
