<svg xmlns="http://www.w3.org/2000/svg" xmlns:xlink="http://www.w3.org/1999/xlink" width="165" height="142" viewBox="0 0 165 142">
  <defs>
    <path id="bot-18-a" d="M160,15.0003274 C161.68664,15.0091031 162.317652,15.194108 162.953691,15.5342654 C163.605543,15.8828796 164.11712,16.3944567 164.465735,17.0463086 C164.814349,17.6981604 165,18.3447329 165,20.1277704 L165,39.8722296 C165,41.6552671 164.814349,42.3018396 164.465735,42.9536914 C164.11712,43.6055433 163.605543,44.1171204 162.953691,44.4657346 C162.317652,44.805892 161.68664,44.9908969 160,44.9996726 L160,54.8722296 C160,56.6552671 159.814349,57.3018396 159.465735,57.9536914 C159.11712,58.6055433 158.605543,59.1171204 157.953691,59.4657346 C157.30184,59.8143488 156.655267,60 154.87223,60 L129.12777,60 C127.344733,60 126.69816,59.8143488 126.046309,59.4657346 C125.394457,59.1171204 124.88288,58.6055433 124.534265,57.9536914 C124.185651,57.3018396 124,56.6552671 124,54.8722296 L124,5.1277704 C124,3.34473292 124.185651,2.69816044 124.534265,2.04630859 C124.88288,1.39445674 125.394457,0.882879593 126.046309,0.534265408 C126.69816,0.185651222 127.344733,1.2037061e-16 129.12777,-2.07168062e-16 L154.87223,2.07168062e-16 C156.655267,-1.2037061e-16 157.30184,0.185651222 157.953691,0.534265408 C158.605543,0.882879593 159.11712,1.39445674 159.465735,2.04630859 C159.814349,2.69816044 160,3.34473292 160,5.1277704 L160,15.0003274 Z M10,23 L10,12.1277704 C10,10.3447329 10.1856512,9.69816044 10.5342654,9.04630859 C10.8828796,8.39445674 11.3944567,7.88287959 12.0463086,7.53426541 C12.6981604,7.18565122 13.3447329,7 15.1277704,7 L30.8722296,7 C32.6552671,7 33.3018396,7.18565122 33.9536914,7.53426541 C34.6055433,7.88287959 35.1171204,8.39445674 35.4657346,9.04630859 C35.8143488,9.69816044 36,10.3447329 36,12.1277704 L36,28.1277704 L36,47.8722296 C36,49.6552671 35.8143488,50.3018396 35.4657346,50.9536914 C35.1171204,51.6055433 34.6055433,52.1171204 33.9536914,52.4657346 C33.3018396,52.8143488 32.6552671,53 30.8722296,53 L5.1277704,53 C3.34473292,53 2.69816044,52.8143488 2.04630859,52.4657346 C1.39445674,52.1171204 0.882879593,51.6055433 0.534265408,50.9536914 C0.185651222,50.3018396 8.02470732e-17,49.6552671 -1.38112041e-16,47.8722296 L1.38112041e-16,28.1277704 C-8.02470732e-17,26.3447329 0.185651222,25.6981604 0.534265408,25.0463086 C0.882879593,24.3944567 1.39445674,23.8828796 2.04630859,23.5342654 C2.69816044,23.1856512 3.34473292,23 5.1277704,23 L10,23 Z"/>
    <path id="bot-18-c" d="M56,18 L56,5 C56,2.23857625 58.2385763,5.07265313e-16 61,0 L67,0 C69.7614237,-5.07265313e-16 72,2.23857625 72,5 L72,18 L78,18 C79.1045695,18 80,18.8954305 80,20 L80,30 L0,30 L0,20 C-1.3527075e-16,18.8954305 0.8954305,18 2,18 L8,18 L8,5 C8,2.23857625 10.2385763,5.07265313e-16 13,0 L19,0 C21.7614237,-5.07265313e-16 24,2.23857625 24,5 L24,18 L32,18 L32,5 C32,2.23857625 34.2385763,5.07265313e-16 37,0 L43,0 C45.7614237,-5.07265313e-16 48,2.23857625 48,5 L48,18 L56,18 Z"/>
    <rect id="bot-18-e" width="130" height="120" rx="18"/>
  </defs>
  <g fill="none" fill-rule="evenodd" transform="translate(-10 -22)">
    <g transform="translate(10 74)">
      <mask id="bot-18-b" fill="#fff">
        <use xlink:href="#bot-18-a"/>
      </mask>
      <use fill="#0076DE" xlink:href="#bot-18-a"/>
      <g fill="#FFD600" mask="url(#bot-18-b)">
        <rect width="180" height="76" transform="translate(-10 -8)"/>
      </g>
      <rect width="180" height="29" x="-10" y="39" fill="#000" fill-opacity=".1" mask="url(#bot-18-b)"/>
      <circle cx="151" cy="12" r="5" fill="#FFF" fill-opacity=".6" mask="url(#bot-18-b)"/>
      <circle cx="151" cy="28" r="5" fill="#FFF" fill-opacity=".6" mask="url(#bot-18-b)"/>
    </g>
    <g transform="translate(51 22)">
      <mask id="bot-18-d" fill="#fff">
        <use xlink:href="#bot-18-c"/>
      </mask>
      <use fill="#E1E6E8" xlink:href="#bot-18-c"/>
      <g fill="#FDD835" mask="url(#bot-18-d)">
        <rect width="100" height="52" transform="translate(-10 -22)"/>
      </g>
      <rect width="100" height="40" x="-10" y="-22" fill="#FFF" fill-opacity=".6" mask="url(#bot-18-d)"/>
      <rect width="4" height="8" x="14" y="6" fill="#FFF" fill-opacity=".6" mask="url(#bot-18-d)" rx="2"/>
      <rect width="4" height="8" x="38" y="6" fill="#FFF" fill-opacity=".6" mask="url(#bot-18-d)" rx="2"/>
      <rect width="4" height="8" x="62" y="6" fill="#FFF" fill-opacity=".6" mask="url(#bot-18-d)" rx="2"/>
    </g>
    <g transform="translate(25 44)">
      <mask id="bot-18-f" fill="#fff">
        <use xlink:href="#bot-18-e"/>
      </mask>
      <use fill="#0076DE" xlink:href="#bot-18-e"/>
      <g fill="#FFF" mask="url(#bot-18-f)">
        <rect width="134" height="124" transform="translate(-2 -2)"/>
      </g>
      <g fill="#000" mask="url(#bot-18-f)">
        <g transform="translate(-1 -1)">
          <path fill-opacity=".2" d="M-9.11955629,122.092261 C-4.75864768,91.4015967 3.93799819,117.533631 24.8655794,112.12396 C34.1114596,109.733948 26.640969,99.2957595 33.5369251,94.7717324 C39.3618156,90.9503678 47.2997509,94.0293736 53.9721466,91.5579533 C63.6014225,87.99132 63.4748482,80.7354599 72.4469492,79.6510309 C80.9317383,78.6255016 89.8203396,82.0049911 98.377883,80.7354599 C114.52834,78.3395026 107.906382,46.7111063 120.01742,41.1251889 C132.128458,35.5392715 152.06764,45.1858521 154.677658,61 C156.373936,71.2777829 151.55461,95.5377314 140.21968,133.779846 L-9.11955629,133.779846"/>
          <path fill-opacity=".1" d="M35.9268464,122 C73.6043905,122 77.5268977,107.25032 96.0650387,100.492846 C114.60318,93.7353716 130.845661,111.213512 137.077849,94.2331339 C141.232642,82.9128816 143.298631,94.895504 143.275816,130.181001 L35.9268464,130.181001 L35.9268464,122 Z"/>
          <path fill-opacity=".4" d="M-2,4.86732511 C9.73320733,3.74652018 5.96193192,16.806064 10.5973598,16.806064 C12.4464321,16.806064 14.6252877,8.34889769 17.983215,8.34889769 C20.4379638,8.34889769 19.9753096,13.8424996 25.3050084,13.2617118 C30.3076746,12.7165614 29.3753984,9.26870987 31.9026708,9.26870987 C37.3453964,9.26870987 35.2872819,29.4636252 39.6440681,29.4636252 C44.0008542,29.4636252 45.3737266,14.6679622 47.2914382,8.8163548 C49.7180554,1.41189864 64.2635329,-2.73836446 53.8922857,-5.67986809 L-2.28674568,-5.67986809"/>
        </g>
      </g>
    </g>
    <g transform="translate(52 124)">
      <rect width="68" height="22" x="4" y="5" fill="#000" fill-opacity=".2" rx="5"/>
      <rect width="60" height="14" x="8" y="9" fill="#000" fill-opacity=".6" rx="2"/>
      <polygon fill="#E1E6E8" points="20 9 26 17 14 17" transform="matrix(1 0 0 -1 0 26)"/>
      <polygon fill="#E1E6E8" points="32 9 38 17 26 17" transform="matrix(1 0 0 -1 0 26)"/>
      <polygon fill="#E1E6E8" points="44 9 50 17 38 17" transform="matrix(1 0 0 -1 0 26)"/>
      <polygon fill="#E1E6E8" points="56 9 62 17 50 17" transform="matrix(1 0 0 -1 0 26)"/>
    </g>
    <g transform="translate(38 76)">
      <rect width="104" height="34" y="11" fill="#000" fill-opacity=".8" rx="17"/>
      <circle cx="29" cy="28" r="13" fill="#F1EEDA"/>
      <circle cx="75" cy="28" r="13" fill="#F1EEDA"/>
      <rect width="10" height="10" x="24" y="23" fill="#000" fill-opacity=".8" rx="2"/>
      <rect width="10" height="10" x="70" y="23" fill="#000" fill-opacity=".8" rx="2"/>
    </g>
  </g>
</svg>
